<svg width="40" height="40" viewBox="0 0 40 40" fill="none" xmlns="http://www.w3.org/2000/svg">
  <!-- Chip/Processor Icon -->
  <rect x="8" y="8" width="24" height="24" rx="2" stroke="currentColor" stroke-width="2" fill="none"/>
  <rect x="12" y="12" width="16" height="16" rx="1" stroke="currentColor" stroke-width="1.5" fill="none"/>
  
  <!-- Connection points/pins around the chip -->
  <circle cx="4" cy="10" r="1.5" fill="currentColor"/>
  <circle cx="4" cy="16" r="1.5" fill="currentColor"/>
  <circle cx="4" cy="22" r="1.5" fill="currentColor"/>
  <circle cx="4" cy="28" r="1.5" fill="currentColor"/>
  
  <circle cx="36" cy="10" r="1.5" fill="currentColor"/>
  <circle cx="36" cy="16" r="1.5" fill="currentColor"/>
  <circle cx="36" cy="22" r="1.5" fill="currentColor"/>
  <circle cx="36" cy="28" r="1.5" fill="currentColor"/>
  
  <circle cx="10" cy="4" r="1.5" fill="currentColor"/>
  <circle cx="16" cy="4" r="1.5" fill="currentColor"/>
  <circle cx="22" cy="4" r="1.5" fill="currentColor"/>
  <circle cx="28" cy="4" r="1.5" fill="currentColor"/>
  
  <circle cx="10" cy="36" r="1.5" fill="currentColor"/>
  <circle cx="16" cy="36" r="1.5" fill="currentColor"/>
  <circle cx="22" cy="36" r="1.5" fill="currentColor"/>
  <circle cx="28" cy="36" r="1.5" fill="currentColor"/>
  
  <!-- Connection lines -->
  <line x1="5.5" y1="10" x2="8" y2="10" stroke="currentColor" stroke-width="1"/>
  <line x1="5.5" y1="16" x2="8" y2="16" stroke="currentColor" stroke-width="1"/>
  <line x1="5.5" y1="22" x2="8" y2="22" stroke="currentColor" stroke-width="1"/>
  <line x1="5.5" y1="28" x2="8" y2="28" stroke="currentColor" stroke-width="1"/>
  
  <line x1="32" y1="10" x2="34.5" y2="10" stroke="currentColor" stroke-width="1"/>
  <line x1="32" y1="16" x2="34.5" y2="16" stroke="currentColor" stroke-width="1"/>
  <line x1="32" y1="22" x2="34.5" y2="22" stroke="currentColor" stroke-width="1"/>
  <line x1="32" y1="28" x2="34.5" y2="28" stroke="currentColor" stroke-width="1"/>
  
  <line x1="10" y1="5.5" x2="10" y2="8" stroke="currentColor" stroke-width="1"/>
  <line x1="16" y1="5.5" x2="16" y2="8" stroke="currentColor" stroke-width="1"/>
  <line x1="22" y1="5.5" x2="22" y2="8" stroke="currentColor" stroke-width="1"/>
  <line x1="28" y1="5.5" x2="28" y2="8" stroke="currentColor" stroke-width="1"/>
  
  <line x1="10" y1="32" x2="10" y2="34.5" stroke="currentColor" stroke-width="1"/>
  <line x1="16" y1="32" x2="16" y2="34.5" stroke="currentColor" stroke-width="1"/>
  <line x1="22" y1="32" x2="22" y2="34.5" stroke="currentColor" stroke-width="1"/>
  <line x1="28" y1="32" x2="28" y2="34.5" stroke="currentColor" stroke-width="1"/>
</svg>
